<svg xmlns="http://www.w3.org/2000/svg" width="1600" height="900" viewBox="0 0 1600 900" role="img" aria-labelledby="title">
  <title id="title">Abstract BAS Platform documentation background</title>
  <defs>
    <pattern id="grid" width="64" height="64" patternUnits="userSpaceOnUse">
      <path d="M64 0H0V64" fill="none" stroke="rgba(255,255,255,0.1)" stroke-width="1"/>
    </pattern>
  </defs>
  <rect width="1600" height="900" fill="#0c1f30"/>
  <rect width="1600" height="900" fill="url(#grid)"/>
  <g fill="none" stroke="rgba(125,211,252,0.34)" stroke-width="3">
    <path d="M260 230h210c60 0 80 60 140 60h170"/>
    <path d="M260 450h310c80 0 100-80 180-80h260"/>
    <path d="M260 670h240c80 0 110-95 190-95h330"/>
  </g>
  <g fill="#38bdf8">
    <circle cx="260" cy="230" r="9"/>
    <circle cx="470" cy="230" r="9"/>
    <circle cx="780" cy="290" r="9"/>
    <circle cx="260" cy="450" r="9"/>
    <circle cx="570" cy="450" r="9"/>
    <circle cx="1010" cy="370" r="9"/>
    <circle cx="260" cy="670" r="9"/>
    <circle cx="500" cy="670" r="9"/>
    <circle cx="1020" cy="575" r="9"/>
  </g>
</svg>
