<svg xmlns="http://www.w3.org/2000/svg" width="1200" height="630" viewBox="0 0 1200 630" role="img" aria-labelledby="title desc">
  <title id="title">PAD Platform Documentation</title>
  <desc id="desc">Product data automation documentation for architecture, delivery, and operations.</desc>
  <defs>
    <linearGradient id="accent" x1="0" y1="0" x2="1" y2="1">
      <stop offset="0" stop-color="#5b8cff"/>
      <stop offset="1" stop-color="#9bb8ff"/>
    </linearGradient>
    <pattern id="grid" width="48" height="48" patternUnits="userSpaceOnUse">
      <path d="M48 0H0v48" fill="none" stroke="#25252a" stroke-width="1"/>
    </pattern>
  </defs>
  <rect width="1200" height="630" fill="#070708"/>
  <rect width="1200" height="630" fill="url(#grid)" opacity=".7"/>
  <circle cx="1030" cy="60" r="360" fill="#2457d6" opacity=".16"/>
  <g transform="translate(76 68)">
    <rect width="64" height="64" rx="18" fill="#f7f7f8"/>
    <path d="M17 14h21c9.3 0 15 5.4 15 13.9S47.3 42 38 42h-9v9H17V14Zm12 10v8h8c2.7 0 4.3-1.7 4.3-4s-1.6-4-4.3-4h-8Z" fill="#09090b"/>
  </g>
  <text x="76" y="230" fill="#f7f7f8" font-family="Inter,Segoe UI,sans-serif" font-size="72" font-weight="750" letter-spacing="-3">PAD Platform</text>
  <text x="76" y="294" fill="#a1a1aa" font-family="Inter,Segoe UI,sans-serif" font-size="29">Product data automation, documented end to end.</text>
  <g transform="translate(76 430)" font-family="Inter,Segoe UI,sans-serif" font-size="20" font-weight="650">
    <rect width="178" height="54" rx="27" fill="#151518" stroke="#303036"/>
    <text x="28" y="34" fill="#d4d4d8">Architecture</text>
    <rect x="194" width="166" height="54" rx="27" fill="#151518" stroke="#303036"/>
    <text x="222" y="34" fill="#d4d4d8">Engineering</text>
    <rect x="376" width="178" height="54" rx="27" fill="#151518" stroke="#303036"/>
    <text x="404" y="34" fill="#d4d4d8">Operations</text>
  </g>
  <g transform="translate(750 385)">
    <path d="M0 48h110M140 48h110M280 48h94" stroke="url(#accent)" stroke-width="3" stroke-dasharray="8 10"/>
    <g fill="#0f0f12" stroke="#6790f4" stroke-width="2">
      <rect width="110" height="96" rx="18"/>
      <rect x="140" width="110" height="96" rx="18"/>
      <rect x="280" width="110" height="96" rx="18"/>
    </g>
    <g fill="#f7f7f8" font-family="Inter,Segoe UI,sans-serif" font-size="17" font-weight="650" text-anchor="middle">
      <text x="55" y="54">Sources</text>
      <text x="195" y="54">Catalog</text>
      <text x="335" y="54">Publish</text>
    </g>
  </g>
</svg>
